<?xml version="1.0" encoding="utf-8"?>
<!-- Generator: Adobe Illustrator 19.0.1, SVG Export Plug-In . SVG Version: 6.00 Build 0)  -->
<svg version="1.1" id="Layer_1" xmlns="http://www.w3.org/2000/svg" xmlns:xlink="http://www.w3.org/1999/xlink" x="0px" y="0px"
	 viewBox="-214.3 409.8 190.9 22.6" style="enable-background:new -214.3 409.8 190.9 22.6;" xml:space="preserve">
<style type="text/css">
	.st0{fill:#E8F0CA;}
	.st1{fill:none;}
	.st2{font-family:'CenturyGothic-Bold';}
	.st3{font-size:28px;}
</style>
<path class="st0" d="M-184.8,413.3l-3,2.7c-1.1-1.5-2.2-2.3-3.3-2.3c-0.5,0-1,0.1-1.3,0.4c-0.3,0.3-0.6,0.7-0.6,1s0.1,0.7,0.4,1
	c0.3,0.4,1.3,1.4,3,2.8c1.6,1.3,2.5,2.1,2.8,2.5c0.8,0.8,1.4,1.6,1.8,2.4c0.4,0.8,0.5,1.6,0.5,2.5c0,1.8-0.6,3.2-1.8,4.4
	c-1.2,1.2-2.8,1.7-4.8,1.7c-1.5,0-2.9-0.4-4-1.1c-1.1-0.8-2.1-1.9-2.9-3.5l3.4-2.1c1,1.9,2.2,2.9,3.6,2.9c0.7,0,1.3-0.2,1.8-0.6
	s0.7-0.9,0.7-1.4s-0.2-1-0.5-1.5s-1.2-1.3-2.4-2.3c-2.4-1.9-3.9-3.4-4.6-4.4s-1-2.1-1-3.1c0-1.5,0.6-2.8,1.7-3.8
	c1.1-1,2.6-1.7,4.2-1.7c1.1,0,2.1,0.2,3.1,0.7S-186,411.9-184.8,413.3z"/>
<path class="st0" d="M-174,410.3h4.2l8.3,21.5h-4.3l-1.7-4.4h-8.8l-1.7,4.5h-4.3L-174,410.3z M-171.9,416l-2.9,7.4h5.8L-171.9,416z"
	/>
<path class="st0" d="M-160,410.3h4.2l5.4,15.3l5.5-15.3h4.2l-7.8,21.5h-4L-160,410.3z"/>
<path class="st0" d="M-137.3,410.3h11.8v4h-7.7v3.9h7.7v3.9h-7.7v5.7h7.7v4h-11.8V410.3z"/>
<path class="st0" d="M-121.3,410.3h10.7v4h-6.6v3.9h6.6v3.9h-6.6v9.7h-4.1V410.3z"/>
<path class="st0" d="M-96.8,409.8c3,0,5.7,1.1,7.9,3.3s3.3,4.9,3.3,8.1c0,3.1-1.1,5.8-3.2,8c-2.1,2.2-4.8,3.3-7.9,3.3
	c-3.2,0-5.9-1.1-8.1-3.4s-3.2-4.9-3.2-8c0-2.1,0.5-4,1.5-5.7c1-1.7,2.4-3.1,4.1-4.1S-98.8,409.8-96.8,409.8z M-96.8,413.8
	c-2,0-3.7,0.7-5,2.1c-1.3,1.4-2,3.1-2,5.3c0,2.4,0.9,4.3,2.6,5.7c1.3,1.1,2.9,1.6,4.6,1.6c1.9,0,3.6-0.7,5-2.1s2.1-3.1,2.1-5.2
	c0-2.1-0.7-3.8-2.1-5.2S-94.8,413.8-96.8,413.8z"/>
<path class="st0" d="M-81.5,410.3h4.3c2.4,0,4.1,0.2,5.1,0.6c1,0.4,1.8,1.1,2.4,2.1c0.6,1,0.9,2.2,0.9,3.5c0,1.4-0.3,2.6-1,3.6
	s-1.7,1.7-3.1,2.2l5.1,9.6h-4.5l-4.7-9.1h-0.4v9.1h-4.1C-81.5,431.9-81.5,410.3-81.5,410.3z M-77.4,418.8h1.3c1.3,0,2.2-0.2,2.7-0.5
	c0.5-0.3,0.7-0.9,0.7-1.7c0-0.5-0.1-0.9-0.4-1.2c-0.2-0.3-0.6-0.6-1-0.7c-0.4-0.2-1.2-0.2-2.2-0.2h-1.1V418.8z"/>
<path class="st0" d="M-64.3,410.3h11.8v4h-7.7v3.9h7.7v3.9h-7.7v5.7h7.7v4h-11.8V410.3z"/>
<path class="st0" d="M-37.4,413.3l-3,2.7c-1.1-1.5-2.2-2.2-3.3-2.2c-0.5,0-1,0.1-1.3,0.4c-0.3,0.3-0.5,0.6-0.5,1s0.1,0.7,0.4,1
	c0.3,0.4,1.3,1.4,3,2.8c1.6,1.3,2.5,2.1,2.8,2.5c0.8,0.8,1.4,1.6,1.8,2.4c0.4,0.8,0.5,1.6,0.5,2.5c0,1.8-0.6,3.2-1.8,4.4
	c-1.2,1.2-2.8,1.7-4.8,1.7c-1.5,0-2.9-0.4-4-1.1c-1.1-0.8-2.1-1.9-2.9-3.5l3.4-2.1c1,1.9,2.2,2.9,3.6,2.9c0.7,0,1.3-0.2,1.8-0.6
	s0.7-0.9,0.7-1.4s-0.2-1-0.5-1.5s-1.3-1.4-2.5-2.4c-2.3-1.9-3.9-3.4-4.5-4.4c-0.7-1-1-2.1-1-3.1c0-1.5,0.6-2.8,1.7-3.8
	s2.5-1.6,4.2-1.6c1.1,0,2.1,0.2,3.1,0.7S-38.6,411.9-37.4,413.3z"/>
<path class="st0" d="M-35.3,410.3h11.9v4h-3.9v17.5h-4.2v-17.4h-3.8V410.3z"/>
<rect x="-214.3" y="410.3" class="st1" width="17.5" height="30.3"/>
<text transform="matrix(1 0 0 1 -214.25 430.8974)" class="st0 st2 st3">#</text>
</svg>
